<?xml version="1.0" encoding="UTF-8"?>
<svg xmlns="http://www.w3.org/2000/svg" width="760" height="1500" viewBox="0 0 760 1500">
  <style>
    .time, .date, .appName {
      font-family: "TOS Title", system-ui, sans-serif;
      fill: #ffffff;
    }

    .time {
      font-size: 78px;
      letter-spacing: 2px;
    }

    .date {
      font-size: 22px;
      opacity: 0.9;
    }

    .appName {
      font-size: 22px;
      letter-spacing: 1px;
    }

    .caption {
      font-family: system-ui, sans-serif;
      fill: #ffd3a0;
      font-size: 18px;
    }
  </style>

  <rect width="760" height="1500" fill="#101010" />
  <rect x="35" y="40" width="690" height="1420" rx="54" fill="#000000" />

  <clipPath id="phoneClip">
    <rect x="35" y="40" width="690" height="1420" rx="54" />
  </clipPath>

  <g clip-path="url(#phoneClip)">
    <rect x="35" y="40" width="690" height="1420" fill="#000000" />

    <rect x="0" y="225" width="130" height="23" fill="#e8bd88" />
    <rect x="135" y="225" width="166" height="23" fill="#d62b18" />
    <rect x="306" y="225" width="419" height="58" rx="29" fill="#df5a1f" />

    <rect x="512" y="0" width="178" height="92" fill="#e8bd88" />
<rect x="512" y="108" width="178" height="132" fill="#df5a1f" />
<rect x="512" y="256" width="178" height="178" fill="#d62b18" />
<rect x="512" y="450" width="178" height="210" fill="#e09a3f" />
<rect x="512" y="676" width="178" height="235" fill="#dfb98a" />

    <text x="68" y="405" class="time">7:31</text>
    <text x="68" y="438" class="date">Fri, Jun 26 · 72°</text>

    
      <rect x="68" y="450" width="46" height="46" rx="11" fill="#e8bd88" />
      <rect x="75" y="456" width="32" height="7" rx="4" fill="#ffffff" opacity="0.14" />
      <text x="146" y="481" class="appName">Discord</text>
      <rect x="68" y="526" width="46" height="46" rx="11" fill="#df5a1f" />
      <rect x="75" y="532" width="32" height="7" rx="4" fill="#ffffff" opacity="0.14" />
      <text x="146" y="557" class="appName">Brave</text>
      <rect x="68" y="602" width="46" height="46" rx="11" fill="#d62b18" />
      <rect x="75" y="608" width="32" height="7" rx="4" fill="#ffffff" opacity="0.14" />
      <text x="146" y="633" class="appName">ChatGPT</text>
      <rect x="68" y="678" width="46" height="46" rx="11" fill="#e09a3f" />
      <rect x="75" y="684" width="32" height="7" rx="4" fill="#ffffff" opacity="0.14" />
      <text x="146" y="709" class="appName">Grayjay</text>
      <rect x="68" y="754" width="46" height="46" rx="11" fill="#dfb98a" />
      <rect x="75" y="760" width="32" height="7" rx="4" fill="#ffffff" opacity="0.14" />
      <text x="146" y="785" class="appName">Feeder</text>
      <rect x="68" y="830" width="46" height="46" rx="11" fill="#e8bd88" />
      <rect x="75" y="836" width="32" height="7" rx="4" fill="#ffffff" opacity="0.14" />
      <text x="146" y="861" class="appName">Gallery</text>
      <rect x="68" y="906" width="46" height="46" rx="11" fill="#df5a1f" />
      <rect x="75" y="912" width="32" height="7" rx="4" fill="#ffffff" opacity="0.14" />
      <text x="146" y="937" class="appName">Health</text>
      <rect x="68" y="982" width="46" height="46" rx="11" fill="#df5a1f" />
      <rect x="75" y="988" width="32" height="7" rx="4" fill="#ffffff" opacity="0.14" />
      <text x="146" y="1013" class="appName">Withings</text>
      <rect x="68" y="1058" width="46" height="46" rx="11" fill="#e8bd88" />
      <rect x="75" y="1064" width="32" height="7" rx="4" fill="#ffffff" opacity="0.14" />
      <text x="146" y="1089" class="appName">Reddit</text>
      <rect x="68" y="1134" width="46" height="46" rx="11" fill="#d62b18" />
      <rect x="75" y="1140" width="32" height="7" rx="4" fill="#ffffff" opacity="0.14" />
      <text x="146" y="1165" class="appName">Chess</text>
      <rect x="68" y="1210" width="46" height="46" rx="11" fill="#d62b18" />
      <rect x="75" y="1216" width="32" height="7" rx="4" fill="#ffffff" opacity="0.14" />
      <text x="146" y="1241" class="appName">lichess</text>
      <rect x="68" y="1286" width="46" height="46" rx="11" fill="#dfb98a" />
      <rect x="75" y="1292" width="32" height="7" rx="4" fill="#ffffff" opacity="0.14" />
      <text x="146" y="1317" class="appName">Settings</text>

    <text x="68" y="1380" class="caption">TOS Title</text>
    <text x="68" y="1408" class="caption" opacity="0.78">Original-series retro title feel</text>

    <circle cx="380" cy="1432" r="10" fill="#ffffff" />
  </g>
</svg>